<svg id="Capa_1" data-name="Capa 1" xmlns="http://www.w3.org/2000/svg" xmlns:xlink="http://www.w3.org/1999/xlink" viewBox="0 0 935 954"><defs><style>.cls-1{stroke:#000;stroke-miterlimit:10;}.cls-2{fill:url(#Degradado_sin_nombre);}.cls-3{fill:#fff;}</style><linearGradient id="Degradado_sin_nombre" x1="123" y1="448" x2="878" y2="448" gradientUnits="userSpaceOnUse"><stop offset="0" stop-color="#fff"/><stop offset="1"/></linearGradient></defs><title>logo</title><circle class="cls-1" cx="467.5" cy="486.5" r="467"/><path class="cls-2" d="M446.82,604.78l-5.47,26.07q-27,6.87-44.14,6.86-16.41,0-54.29-4.11-28.53-2.75-51.17-2.75a412.83,412.83,0,0,0-80.47,8.23l5.47-25.15q39.45-4.56,57.42-19.21,12.88-10.51,22.07-35.9t41.6-177.21l50-242.39,2.73-11.43q-23.06-1.37-34.76-1.37-72.27,0-114.65,18.33t-63.67,53.14A141.4,141.4,0,0,0,156.2,273a76.2,76.2,0,0,0,4.3,26.11q3.12,8.25,17.19,26.58Q191,342.66,191,356.86a30.42,30.42,0,0,1-7.82,21.07q-7.82,8.71-18.74,8.71-16.41,0-26.57-18.3Q123,341.37,123,299.75q0-55.8,29.49-108.39t81-81.41q51.57-28.8,125.39-28.81Q394.09,81.14,471,93q54.68,8.23,79.29,8.23t34.77-9.6q10.15-9.6,10.15-25.61,0-3.19-1.17-12.81a109.77,109.77,0,0,1-1.17-11.43q0-12.35,7-20.58T616.74,13q11.71,0,19.33,10.06t7.62,27q0,34.77-31.6,59.91T506.35,135.11q-26.53,0-56.57-2.75Q445.87,148.83,425.12,244L391.05,402.19l-20.74,96.49L348.78,608.9q26.16,3.66,43.35,3.66A207.53,207.53,0,0,0,446.82,604.78Z" transform="translate(-33 -13)"/><path class="cls-2" d="M878,763.6l-4.52,24.75q-16.26,1.3-28.46,1.3A415.75,415.75,0,0,1,802.55,787q-42.46-4.34-53.76-4.34-19,0-58.28,5.65A523.36,523.36,0,0,0,714,717.14q6.76-26.48,14.45-91.18-52.77-.42-163.72,2.17Q449.72,796.6,396.18,839.8T294.31,883q-25.31,0-37.73-9.34t-12.42-24.09q0-11.3,7.23-18.67a24.22,24.22,0,0,1,18.07-7.38,92.52,92.52,0,0,1,17.17,2.17q27.11,6.07,36.14,6.08,30.25,0,66.86-33Q449.23,744.94,565.7,573,697.52,378.49,779.24,289.9q-111.45,9.56-139,18.23-37.9,11.73-56.86,34.74t-18.94,46.89q0,7.82,5.87,22.15,6.33,16.06,6.33,23.44,0,9.56-7.68,16.93a25.77,25.77,0,0,1-18.53,7.39q-15.36,0-24.62-11.08t-9.26-33.21q0-31.26,16.94-60.57t48.57-49.06q31.62-19.75,79.06-30.18,24.39-5.64,85.84-10,53.35-4.33,66.94-8.25,21.27-5.62,40.71-22.14-13.57,53.4-19.46,93.35l-35.3,251L779.51,759.26q33.43,8.25,60.09,8.25A209.29,209.29,0,0,0,878,763.6ZM732.53,593.83q21.69-176.28,43.37-257.47-57.24,73-70.78,92.15L589,593.83q37.44,1.3,106.94,1.3Q713.13,595.13,732.53,593.83Z" transform="translate(-33 -13)"/><path class="cls-3" d="M446.82,604.78l-5.47,26.07q-27,6.87-44.14,6.86-16.41,0-54.29-4.11-28.53-2.75-51.17-2.75a412.83,412.83,0,0,0-80.47,8.23l5.47-25.15q39.45-4.56,57.42-19.21,12.88-10.51,22.07-35.9t41.6-177.21l50-242.39,2.73-11.43q-23.06-1.37-34.76-1.37-72.27,0-114.65,18.33t-63.67,53.14A141.4,141.4,0,0,0,156.2,273a76.2,76.2,0,0,0,4.3,26.11q3.12,8.25,17.19,26.58Q191,342.66,191,356.86a30.42,30.42,0,0,1-7.82,21.07q-7.82,8.71-18.74,8.71-16.41,0-26.57-18.3Q123,341.37,123,299.75q0-55.8,29.49-108.39t81-81.41q51.57-28.8,125.39-28.81Q394.09,81.14,471,93q54.68,8.23,79.29,8.23t34.77-9.6q10.15-9.6,10.15-25.61,0-3.19-1.17-12.81a109.77,109.77,0,0,1-1.17-11.43q0-12.35,7-20.58T616.74,13q11.71,0,19.33,10.06t7.62,27q0,34.77-31.6,59.91T506.35,135.11q-26.53,0-56.57-2.75Q445.87,148.83,425.12,244L391.05,402.19l-20.74,96.49L348.78,608.9q26.16,3.66,43.35,3.66A207.53,207.53,0,0,0,446.82,604.78Z" transform="translate(-33 -13)"/><path class="cls-3" d="M878,763.6l-4.52,24.75q-16.26,1.3-28.46,1.3A415.75,415.75,0,0,1,802.55,787q-42.46-4.34-53.76-4.34-19,0-58.28,5.65A523.36,523.36,0,0,0,714,717.14q6.76-26.48,14.45-91.18-52.77-.42-163.72,2.17Q449.72,796.6,396.18,839.8T294.31,883q-25.31,0-37.73-9.34t-12.42-24.09q0-11.3,7.23-18.67a24.22,24.22,0,0,1,18.07-7.38,92.52,92.52,0,0,1,17.17,2.17q27.11,6.07,36.14,6.08,30.25,0,66.86-33Q449.23,744.94,565.7,573,697.52,378.49,779.24,289.9q-111.45,9.56-139,18.23-37.9,11.73-56.86,34.74t-18.94,46.89q0,7.82,5.87,22.15,6.33,16.06,6.33,23.44,0,9.56-7.68,16.93a25.77,25.77,0,0,1-18.53,7.39q-15.36,0-24.62-11.08t-9.26-33.21q0-31.26,16.94-60.57t48.57-49.06q31.62-19.75,79.06-30.18,24.39-5.64,85.84-10,53.35-4.33,66.94-8.25,21.27-5.62,40.71-22.14-13.57,53.4-19.46,93.35l-35.3,251L779.51,759.26q33.43,8.25,60.09,8.25A209.29,209.29,0,0,0,878,763.6ZM732.53,593.83q21.69-176.28,43.37-257.47-57.24,73-70.78,92.15L589,593.83q37.44,1.3,106.94,1.3Q713.13,595.13,732.53,593.83Z" transform="translate(-33 -13)"/></svg>